<?xml version="1.0" encoding="UTF-8"?>
<svg version="1.1" xmlns="http://www.w3.org/2000/svg" width="500" height="500">
<path d="M0 0 C0 33.66 0 67.32 0 102 C-8.25 102.99 -16.5 103.98 -25 105 C-49.66353868 110.50186632 -70.57313904 121.65525336 -89 139 C-89.66515625 139.58910156 -90.3303125 140.17820313 -91.015625 140.78515625 C-112.87616281 161.00171053 -124.69135579 193.37726945 -126.125 222.54296875 C-126.830258 254.49997196 -116.72768204 287.14215305 -95 311 C-94.50258301 311.5465625 -94.00516602 312.093125 -93.49267578 312.65625 C-71.97860719 335.98648353 -42.0735016 351.32928056 -10.14501953 353.1640625 C2.82254679 353.66790189 15.39096627 353.18359301 28 350 C28.65871094 349.83371094 29.31742187 349.66742188 29.99609375 349.49609375 C45.54885987 345.40326056 60.05256301 338.54615093 73 329 C73.83660156 328.38640625 74.67320312 327.7728125 75.53515625 327.140625 C96.97205576 310.6977417 110.98456784 288.66773886 119 263 C119.29648437 262.05253906 119.59296875 261.10507812 119.8984375 260.12890625 C122.29517717 251.57420673 122.99976191 242.82935603 123.75048828 234.0078125 C124 232 124 232 125 228 C158.33 228 191.66 228 226 228 C226 254.6531719 226 254.6531719 224.3125 263.75 C224.13170898 264.78745361 223.95091797 265.82490723 223.76464844 266.89379883 C215.11147133 314.78478541 192.31076647 356.74511426 158 391 C157.35160156 391.68320312 156.70320313 392.36640625 156.03515625 393.0703125 C149.57815494 399.79582278 142.41533921 405.39065816 135 411 C134.07058594 411.71285156 133.14117187 412.42570312 132.18359375 413.16015625 C85.91867941 447.84160471 24.82245572 462.31439937 -32.21362305 454.47631836 C-77.7576368 447.48577049 -119.72280752 428.72244724 -153.5546875 397.2578125 C-155.65882391 395.31501563 -157.80582946 393.46383928 -160 391.625 C-175.2384033 378.23367589 -188.20523313 360.69837656 -198 343 C-198.44408203 342.20851563 -198.88816406 341.41703125 -199.34570312 340.6015625 C-211.61068462 318.56014648 -220.31161967 295.82581074 -225 271 C-225.13097076 270.30854889 -225.26194153 269.61709778 -225.3968811 268.9046936 C-227.79589931 255.85894533 -228.50086692 243.07098808 -228.44604492 229.81958008 C-228.43753413 226.70001061 -228.46644384 223.58228127 -228.49804688 220.46289062 C-228.61585279 186.29766551 -219.29618303 151.99174761 -203 122 C-202.65356445 121.34870117 -202.30712891 120.69740234 -201.95019531 120.02636719 C-193.37660447 103.93813772 -183.19363569 89.53673685 -171 76 C-170.49823242 75.43651855 -169.99646484 74.87303711 -169.47949219 74.29248047 C-126.27631726 25.85213611 -64.49265725 0 0 0 Z " fill="#FFFEFE" transform="translate(251,22)"/>
<path d="M0 0 C0 33.66 0 67.32 0 102 C-8.25 102.99 -16.5 103.98 -25 105 C-49.66353868 110.50186632 -70.57313904 121.65525336 -89 139 C-89.66515625 139.58910156 -90.3303125 140.17820313 -91.015625 140.78515625 C-115.77118211 163.67901496 -123.44034676 196.96312088 -127 229 C-160.33 229 -193.66 229 -228 229 C-228 211.18194834 -227.84893728 196.00553473 -224 179 C-223.81808105 178.18128418 -223.63616211 177.36256836 -223.44873047 176.51904297 C-219.1099185 157.47712555 -212.32047122 139.15353957 -203 122 C-202.65356445 121.34870117 -202.30712891 120.69740234 -201.95019531 120.02636719 C-193.37660447 103.93813772 -183.19363569 89.53673685 -171 76 C-170.49823242 75.43651855 -169.99646484 74.87303711 -169.47949219 74.29248047 C-126.27631726 25.85213611 -64.49265725 0 0 0 Z " fill="#5CE0E5" transform="translate(251,22)"/>
<path d="M0 0 C0 0.66 0 1.32 0 2 C0.59167969 2.17015625 1.18335938 2.3403125 1.79296875 2.515625 C6.68658125 4.01643928 10.11459316 5.55863965 14 9 C14.680625 9.309375 15.36125 9.61875 16.0625 9.9375 C18.74212911 11.40697403 20.11427803 13.6276401 22 16 C22.99 16.33 23.98 16.66 25 17 C26.31640625 18.55859375 26.31640625 18.55859375 27.5625 20.4375 C28.96589896 22.53166854 30.20558012 24.20558012 32 26 C39 34.12903226 39 34.12903226 39 39 C39.66 39 40.32 39 41 39 C41.8009229 41.1215286 42.59021092 43.24745042 43.375 45.375 C44.03628906 47.15003906 44.03628906 47.15003906 44.7109375 48.9609375 C47.73143554 57.94158557 48.38766429 66.68876937 48.375 76.125 C48.37367065 77.90644409 48.37367065 77.90644409 48.37231445 79.72387695 C48.24708354 89.0577118 47.05786061 97.17714053 44 106 C43.69191406 106.90363281 43.38382813 107.80726563 43.06640625 108.73828125 C42.42663545 110.51066066 41.72473577 112.26063416 41 114 C40.34 114 39.68 114 39 114 C38.7525 114.86625 38.505 115.7325 38.25 116.625 C36.74826095 120.67969543 35.0215338 124.9892331 31 127 C30.608125 127.721875 30.21625 128.44375 29.8125 129.1875 C27.79874271 132.31229579 25.60831929 134.19733227 22.75390625 136.52734375 C20.81165397 138.10246782 20.81165397 138.10246782 18.5625 140.5625 C15.7961021 143.19395166 12.96405131 144.98691024 9.671875 146.88671875 C7.83951553 147.90712963 7.83951553 147.90712963 7 150 C4.6121615 151.07828179 2.26690313 152.03562329 -0.1875 152.9375 C-0.90929443 153.20328857 -1.63108887 153.46907715 -2.37475586 153.74291992 C-28.06492529 162.92783852 -55.31348258 161.46489948 -80 150 C-81.35573748 148.68945377 -82.68612831 147.35251497 -84 146 C-85.46394006 144.99821115 -86.9450986 144.02137405 -88.4375 143.0625 C-92.07984173 140.68991079 -95.03862574 138.20815545 -98 135 C-98.9075 134.13375 -99.815 133.2675 -100.75 132.375 C-103 130 -103 130 -104 127 C-105.175625 125.8553125 -105.175625 125.8553125 -106.375 124.6875 C-109.32596479 121.66627415 -112 118.39814743 -112 114 C-112.66 113.67 -113.32 113.34 -114 113 C-123.57628518 92.79177615 -124.29777365 68.05630033 -117 47 C-116.69191406 46.09636719 -116.38382813 45.19273437 -116.06640625 44.26171875 C-115.42663545 42.48933934 -114.72473577 40.73936584 -114 39 C-113.34 39 -112.68 39 -112 39 C-111.731875 38.29875 -111.46375 37.5975 -111.1875 36.875 C-107.88888889 28.88888889 -107.88888889 28.88888889 -105 26 C-103.49746657 24.2630881 -102.01693284 22.50854195 -100.53515625 20.75390625 C-99.08351698 19.09541762 -97.56634739 17.54927548 -96 16 C-95.01 14.88625 -95.01 14.88625 -94 13.75 C-88.28144948 8.04877842 -80.9268811 3.58537622 -73 2 C-73 1.34 -73 0.68 -73 0 C-70.41710408 -0.81391255 -67.83371003 -1.62617929 -65.25 -2.4375 C-64.52039063 -2.66759766 -63.79078125 -2.89769531 -63.0390625 -3.13476562 C-62.33007812 -3.35712891 -61.62109375 -3.57949219 -60.890625 -3.80859375 C-60.24125977 -4.01282959 -59.59189453 -4.21706543 -58.92285156 -4.42749023 C-41.13188613 -9.72457174 -16.72606166 -8.36303083 0 0 Z " fill="#5CE0E6" transform="translate(291,173)"/>
<path d="M0 0 C0 0.66 0 1.32 0 2 C0.59167969 2.17015625 1.18335938 2.3403125 1.79296875 2.515625 C6.68658125 4.01643928 10.11459316 5.55863965 14 9 C14.680625 9.309375 15.36125 9.61875 16.0625 9.9375 C18.74212911 11.40697403 20.11427803 13.6276401 22 16 C22.99 16.33 23.98 16.66 25 17 C26.31640625 18.55859375 26.31640625 18.55859375 27.5625 20.4375 C28.96589896 22.53166854 30.20558012 24.20558012 32 26 C39 34.12903226 39 34.12903226 39 39 C39.66 39 40.32 39 41 39 C45.90427915 51.99072416 48 61.69581813 48 76 C-7.77 76 -63.54 76 -121 76 C-121 61.33333333 -121 61.33333333 -119.1875 54.6875 C-119.00735352 54.01525391 -118.82720703 53.34300781 -118.64160156 52.65039062 C-117.36195381 47.98024255 -115.86138455 43.46732292 -114 39 C-113.34 39 -112.68 39 -112 39 C-111.731875 38.29875 -111.46375 37.5975 -111.1875 36.875 C-107.88888889 28.88888889 -107.88888889 28.88888889 -105 26 C-103.49746657 24.2630881 -102.01693284 22.50854195 -100.53515625 20.75390625 C-99.08351698 19.09541762 -97.56634739 17.54927548 -96 16 C-95.01 14.88625 -95.01 14.88625 -94 13.75 C-88.28144948 8.04877842 -80.9268811 3.58537622 -73 2 C-73 1.34 -73 0.68 -73 0 C-70.41710408 -0.81391255 -67.83371003 -1.62617929 -65.25 -2.4375 C-64.52039063 -2.66759766 -63.79078125 -2.89769531 -63.0390625 -3.13476562 C-62.33007812 -3.35712891 -61.62109375 -3.57949219 -60.890625 -3.80859375 C-60.24125977 -4.01282959 -59.59189453 -4.21706543 -58.92285156 -4.42749023 C-41.13188613 -9.72457174 -16.72606166 -8.36303083 0 0 Z " fill="#FEFEFE" transform="translate(291,173)"/>
</svg>
